<?xml version="1.0" encoding="UTF-8"?>
<svg width="353px" height="81px" viewBox="0 0 353 81" version="1.1" xmlns="http://www.w3.org/2000/svg" xmlns:xlink="http://www.w3.org/1999/xlink">
    <!-- Generator: Sketch 43 (38999) - http://www.bohemiancoding.com/sketch -->
    <title>dependabot</title>
    <desc>Created with Sketch.</desc>
    <defs></defs>
    <g id="Logo-Copy" stroke="none" stroke-width="1" fill="none" fill-rule="evenodd">
        <g id="Regular" transform="translate(-336.000000, -469.000000)" fill="#F6A623">
            <path d="M336.84,516.68 L336.84,507.4 C336.84,503.346646 338.253319,499.893348 341.08,497.04 C343.906681,494.186652 347.293314,492.76 351.24,492.76 C353.693346,492.76 355.839991,493.333328 357.68,494.48 C359.520009,495.626672 360.919995,497.079991 361.88,498.84 L361.88,471.4 C361.88,470.919998 362.066665,470.520002 362.44,470.2 C362.813335,469.879998 363.29333,469.72 363.88,469.72 C364.413336,469.72 364.866665,469.879998 365.24,470.2 C365.613335,470.520002 365.8,470.919998 365.8,471.4 L365.8,529.24 C365.8,529.720002 365.613335,530.133332 365.24,530.48 C364.866665,530.826668 364.413336,531 363.88,531 C363.346664,531 362.893335,530.813335 362.52,530.44 C362.146665,530.066665 361.96,529.666669 361.96,529.24 L361.96,525.4 C361.053329,527.106675 359.60001,528.546661 357.6,529.72 C355.59999,530.893339 353.426678,531.48 351.08,531.48 C347.293314,531.48 343.973348,529.986682 341.12,527 C338.266652,524.013318 336.84,520.573353 336.84,516.68 Z M340.76,516.68 C340.76,519.560014 341.826656,522.133322 343.96,524.4 C346.093344,526.666678 348.573319,527.8 351.4,527.8 C354.120014,527.8 356.546656,526.786677 358.68,524.76 C360.813344,522.733323 361.88,520.946674 361.88,519.4 L361.88,507.4 C361.88,504.14665 360.826677,501.506677 358.72,499.48 C356.613323,497.453323 354.200014,496.44 351.48,496.44 C348.599986,496.44 346.093344,497.559989 343.96,499.8 C341.826656,502.040011 340.76,504.573319 340.76,507.4 L340.76,516.68 Z M374.92,516.68 L374.92,507.16 C374.92,503.213314 376.359986,499.826681 379.24,497 C382.120014,494.173319 385.586646,492.76 389.64,492.76 C393.586686,492.76 396.999986,494.146653 399.88,496.92 C402.760014,499.693347 404.2,503.133313 404.2,507.24 C404.2,508.680007 404.026668,509.839996 403.68,510.72 C403.333332,511.600004 402.78667,512.226665 402.04,512.6 C401.29333,512.973335 400.613336,513.2 400,513.28 C399.386664,513.36 398.520006,513.4 397.4,513.4 L378.84,513.4 L378.84,516.76 C378.84,520.120017 380.039988,522.813323 382.44,524.84 C384.840012,526.866677 387.933314,527.88 391.72,527.88 C393.64001,527.88 395.26666,527.613336 396.6,527.08 C397.93334,526.546664 398.946663,526.013336 399.64,525.48 C400.333337,524.946664 400.866665,524.68 401.24,524.68 C401.720002,524.68 402.146665,524.893331 402.52,525.32 C402.893335,525.746669 403.08,526.173331 403.08,526.6 C403.08,527.613338 401.973344,528.679994 399.76,529.8 C397.546656,530.920006 394.81335,531.48 391.56,531.48 C386.653309,531.48 382.653349,530.120014 379.56,527.4 C376.466651,524.679986 374.92,521.106689 374.92,516.68 Z M378.84,510.12 L395.88,510.12 C397.693342,510.12 398.89333,509.933335 399.48,509.56 C400.06667,509.186665 400.36,508.413339 400.36,507.24 C400.36,504.413319 399.346677,501.880011 397.32,499.64 C395.293323,497.399989 392.733349,496.28 389.64,496.28 C386.653318,496.28 384.106677,497.31999 382,499.4 C379.893323,501.48001 378.84,503.959986 378.84,506.84 L378.84,510.12 Z M412.44,548.04 L412.44,494.84 C412.44,493.773328 413.079994,493.24 414.36,493.24 C414.893336,493.24 415.346665,493.386665 415.72,493.68 C416.093335,493.973335 416.28,494.359998 416.28,494.84 L416.28,498.84 C418.573345,494.786646 422.146642,492.76 427,492.76 C430.946686,492.76 434.333319,494.186652 437.16,497.04 C439.986681,499.893348 441.4,503.346646 441.4,507.4 L441.4,516.68 C441.4,520.573353 439.973348,524.013318 437.12,527 C434.266652,529.986682 430.946686,531.48 427.16,531.48 C424.813322,531.48 422.653343,530.893339 420.68,529.72 C418.706657,528.546661 417.266671,527.106675 416.36,525.4 L416.36,548.04 C416.36,548.466669 416.160002,548.866665 415.76,549.24 C415.359998,549.613335 414.893336,549.8 414.36,549.8 C413.826664,549.8 413.373335,549.626668 413,549.28 C412.626665,548.933332 412.44,548.520002 412.44,548.04 Z M416.36,519.4 C416.36,520.946674 417.426656,522.733323 419.56,524.76 C421.693344,526.786677 424.119986,527.8 426.84,527.8 C429.666681,527.8 432.146656,526.666678 434.28,524.4 C436.413344,522.133322 437.48,519.560014 437.48,516.68 L437.48,507.4 C437.48,504.573319 436.400011,502.040011 434.24,499.8 C432.079989,497.559989 429.560014,496.44 426.68,496.44 C423.959986,496.44 421.56001,497.43999 419.48,499.44 C417.39999,501.44001 416.36,504.093317 416.36,507.4 L416.36,519.4 Z M449,516.68 L449,507.16 C449,503.213314 450.439986,499.826681 453.32,497 C456.200014,494.173319 459.666646,492.76 463.72,492.76 C467.666686,492.76 471.079986,494.146653 473.96,496.92 C476.840014,499.693347 478.28,503.133313 478.28,507.24 C478.28,508.680007 478.106668,509.839996 477.76,510.72 C477.413332,511.600004 476.86667,512.226665 476.12,512.6 C475.37333,512.973335 474.693336,513.2 474.08,513.28 C473.466664,513.36 472.600006,513.4 471.48,513.4 L452.92,513.4 L452.92,516.76 C452.92,520.120017 454.119988,522.813323 456.52,524.84 C458.920012,526.866677 462.013314,527.88 465.8,527.88 C467.72001,527.88 469.34666,527.613336 470.68,527.08 C472.01334,526.546664 473.026663,526.013336 473.72,525.48 C474.413337,524.946664 474.946665,524.68 475.32,524.68 C475.800002,524.68 476.226665,524.893331 476.6,525.32 C476.973335,525.746669 477.16,526.173331 477.16,526.6 C477.16,527.613338 476.053344,528.679994 473.84,529.8 C471.626656,530.920006 468.89335,531.48 465.64,531.48 C460.733309,531.48 456.733349,530.120014 453.64,527.4 C450.546651,524.679986 449,521.106689 449,516.68 Z M452.92,510.12 L469.96,510.12 C471.773342,510.12 472.97333,509.933335 473.56,509.56 C474.14667,509.186665 474.44,508.413339 474.44,507.24 C474.44,504.413319 473.426677,501.880011 471.4,499.64 C469.373323,497.399989 466.813349,496.28 463.72,496.28 C460.733318,496.28 458.186677,497.31999 456.08,499.4 C453.973323,501.48001 452.92,503.959986 452.92,506.84 L452.92,510.12 Z M486.52,529.24 L486.52,494.84 C486.52,493.773328 487.159994,493.24 488.44,493.24 C488.973336,493.24 489.426665,493.386665 489.8,493.68 C490.173335,493.973335 490.36,494.359998 490.36,494.84 L490.36,498.84 C491.266671,497.133325 492.653324,495.693339 494.52,494.52 C496.386676,493.346661 498.573321,492.76 501.08,492.76 C504.973353,492.76 508.333319,494.199986 511.16,497.08 C513.986681,499.960014 515.4,503.39998 515.4,507.4 L515.4,529.24 C515.4,530.413339 514.73334,531 513.4,531 C512.119994,531 511.48,530.413339 511.48,529.24 L511.48,507.4 C511.48,504.573319 510.413344,502.040011 508.28,499.8 C506.146656,497.559989 503.640014,496.44 500.76,496.44 C498.039986,496.44 495.64001,497.43999 493.56,499.44 C491.47999,501.44001 490.44,504.093317 490.44,507.4 L490.44,529.24 C490.44,529.666669 490.240002,530.066665 489.84,530.44 C489.439998,530.813335 488.973336,531 488.44,531 C487.906664,531 487.453335,530.826668 487.08,530.48 C486.706665,530.133332 486.52,529.720002 486.52,529.24 Z M524.12,516.68 L524.12,507.4 C524.12,503.346646 525.533319,499.893348 528.36,497.04 C531.186681,494.186652 534.573314,492.76 538.52,492.76 C540.973346,492.76 543.119991,493.333328 544.96,494.48 C546.800009,495.626672 548.199995,497.079991 549.16,498.84 L549.16,471.4 C549.16,470.919998 549.346665,470.520002 549.72,470.2 C550.093335,469.879998 550.57333,469.72 551.16,469.72 C551.693336,469.72 552.146665,469.879998 552.52,470.2 C552.893335,470.520002 553.08,470.919998 553.08,471.4 L553.08,529.24 C553.08,529.720002 552.893335,530.133332 552.52,530.48 C552.146665,530.826668 551.693336,531 551.16,531 C550.626664,531 550.173335,530.813335 549.8,530.44 C549.426665,530.066665 549.24,529.666669 549.24,529.24 L549.24,525.4 C548.333329,527.106675 546.88001,528.546661 544.88,529.72 C542.87999,530.893339 540.706678,531.48 538.36,531.48 C534.573314,531.48 531.253348,529.986682 528.4,527 C525.546652,524.013318 524.12,520.573353 524.12,516.68 Z M528.04,516.68 C528.04,519.560014 529.106656,522.133322 531.24,524.4 C533.373344,526.666678 535.853319,527.8 538.68,527.8 C541.400014,527.8 543.826656,526.786677 545.96,524.76 C548.093344,522.733323 549.16,520.946674 549.16,519.4 L549.16,507.4 C549.16,504.14665 548.106677,501.506677 546,499.48 C543.893323,497.453323 541.480014,496.44 538.76,496.44 C535.879986,496.44 533.373344,497.559989 531.24,499.8 C529.106656,502.040011 528.04,504.573319 528.04,507.4 L528.04,516.68 Z M561,520.92 C561,516.91998 562.586651,514.133341 565.76,512.56 C568.933349,510.986659 573.55997,510.2 579.64,510.2 L583.96,510.2 L583.96,508.12 C583.96,504.919984 583.120008,502.160012 581.44,499.84 C579.759992,497.519988 577.240017,496.36 573.88,496.36 C571.853323,496.36 569.960009,496.73333 568.2,497.48 C566.439991,498.22667 565.533334,498.6 565.48,498.6 C564.946664,498.6 564.520002,498.360002 564.2,497.88 C563.879998,497.399998 563.72,496.920002 563.72,496.44 C563.72,495.533329 564.826656,494.693337 567.04,493.92 C569.253344,493.146663 571.586654,492.76 574.04,492.76 C578.78669,492.76 582.279989,494.213319 584.52,497.12 C586.760011,500.026681 587.88,503.693311 587.88,508.12 L587.88,529.24 C587.88,529.720002 587.693335,530.133332 587.32,530.48 C586.946665,530.826668 586.493336,531 585.96,531 C585.426664,531 584.973335,530.826668 584.6,530.48 C584.226665,530.133332 584.04,529.720002 584.04,529.24 L584.04,525.4 C580.519982,529.453354 576.520022,531.48 572.04,531.48 C568.78665,531.48 566.133344,530.586676 564.08,528.8 C562.026656,527.013324 561,524.386684 561,520.92 Z M564.92,520.76 C564.92,523.160012 565.62666,524.959994 567.04,526.16 C568.45334,527.360006 570.306655,527.96 572.6,527.96 C575.320014,527.96 577.893321,526.986676 580.32,525.04 C582.746679,523.093324 583.96,521.186676 583.96,519.32 L583.96,513.4 L580.04,513.4 C577.746655,513.4 575.826674,513.479999 574.28,513.64 C572.733326,513.800001 571.186674,514.106664 569.64,514.56 C568.093326,515.013336 566.920004,515.759995 566.12,516.8 C565.319996,517.840005 564.92,519.159992 564.92,520.76 Z M598.12,529.24 L598.12,471.4 C598.12,470.919998 598.306665,470.520002 598.68,470.2 C599.053335,469.879998 599.506664,469.72 600.04,469.72 C600.62667,469.72 601.106665,469.879998 601.48,470.2 C601.853335,470.520002 602.04,470.919998 602.04,471.4 L602.04,498.84 C603.000005,497.079991 604.399991,495.626672 606.24,494.48 C608.080009,493.333328 610.226654,492.76 612.68,492.76 C616.626686,492.76 620.013319,494.186652 622.84,497.04 C625.666681,499.893348 627.08,503.346646 627.08,507.4 L627.08,516.68 C627.08,520.573353 625.653348,524.013318 622.8,527 C619.946652,529.986682 616.626686,531.48 612.84,531.48 C610.493322,531.48 608.32001,530.893339 606.32,529.72 C604.31999,528.546661 602.866671,527.106675 601.96,525.4 L601.96,529.24 C601.96,529.666669 601.773335,530.066665 601.4,530.44 C601.026665,530.813335 600.573336,531 600.04,531 C599.506664,531 599.053335,530.826668 598.68,530.48 C598.306665,530.133332 598.12,529.720002 598.12,529.24 Z M602.04,519.4 C602.04,520.946674 603.106656,522.733323 605.24,524.76 C607.373344,526.786677 609.799986,527.8 612.52,527.8 C615.346681,527.8 617.826656,526.666678 619.96,524.4 C622.093344,522.133322 623.16,519.560014 623.16,516.68 L623.16,507.4 C623.16,504.573319 622.093344,502.040011 619.96,499.8 C617.826656,497.559989 615.320014,496.44 612.44,496.44 C609.719986,496.44 607.306677,497.453323 605.2,499.48 C603.093323,501.506677 602.04,504.14665 602.04,507.4 L602.04,519.4 Z M634.6,516.68 L634.6,507.4 C634.6,503.453314 636.039986,500.026681 638.92,497.12 C641.800014,494.213319 645.23998,492.76 649.24,492.76 C653.186686,492.76 656.626652,494.199986 659.56,497.08 C662.493348,499.960014 663.96,503.39998 663.96,507.4 L663.96,516.68 C663.96,520.573353 662.480015,524.013318 659.52,527 C656.559985,529.986682 653.133353,531.48 649.24,531.48 C645.346647,531.48 641.933348,530.000015 639,527.04 C636.066652,524.079985 634.6,520.626686 634.6,516.68 Z M638.52,516.68 C638.52,519.560014 639.573323,522.133322 641.68,524.4 C643.786677,526.666678 646.306652,527.8 649.24,527.8 C652.173348,527.8 654.706656,526.666678 656.84,524.4 C658.973344,522.133322 660.04,519.560014 660.04,516.68 L660.04,507.4 C660.04,504.573319 658.973344,502.040011 656.84,499.8 C654.706656,497.559989 652.173348,496.44 649.24,496.44 C646.306652,496.44 643.786677,497.559989 641.68,499.8 C639.573323,502.040011 638.52,504.573319 638.52,507.4 L638.52,516.68 Z M672.84,519.56 L672.84,476.6 C672.84,476.119998 673.039998,475.720002 673.44,475.4 C673.840002,475.079998 674.279998,474.92 674.76,474.92 C675.293336,474.92 675.759998,475.079998 676.16,475.4 C676.560002,475.720002 676.76,476.119998 676.76,476.6 L676.76,493.24 L687.4,493.24 C687.826669,493.24 688.186665,493.413332 688.48,493.76 C688.773335,494.106668 688.92,494.519998 688.92,495 C688.92,495.426669 688.760002,495.813332 688.44,496.16 C688.119998,496.506668 687.773335,496.68 687.4,496.68 L676.76,496.68 L676.76,519.56 C676.76,522.386681 677.373327,524.386661 678.6,525.56 C679.826673,526.733339 681.959985,527.32 685,527.32 L687,527.32 C687.533336,527.32 687.973332,527.493332 688.32,527.84 C688.666668,528.186668 688.84,528.626664 688.84,529.16 C688.84,529.640002 688.666668,530.066665 688.32,530.44 C687.973332,530.813335 687.533336,531 687,531 L685,531 C676.893293,531 672.84,527.186705 672.84,519.56 Z" id="dependabot"></path>
        </g>
    </g>
</svg>