<?xml version="1.0" encoding="utf-8"?>
<!-- Generator: Adobe Illustrator 18.0.0, SVG Export Plug-In . SVG Version: 6.00 Build 0)  -->
<!DOCTYPE svg PUBLIC "-//W3C//DTD SVG 1.1//EN" "http://www.w3.org/Graphics/SVG/1.1/DTD/svg11.dtd">
<svg version="1.1" id="Layer_1" xmlns="http://www.w3.org/2000/svg" xmlns:xlink="http://www.w3.org/1999/xlink" x="0px" y="0px"
	 viewBox="0 0 512 100" enable-background="new 0 0 512 100" xml:space="preserve">
<path fill="#7C82B6" d="M112.3,41.6c3-3.6,4.6-7.7,4.6-12.4c0-5.6-2.2-10.5-6.7-14.5c-4.5-4.1-9.9-6.1-16.2-6.1H7.7
	c-2.9,0.6-5,3.1-5.1,6.2v14.5h90.9L18.7,50.6C14,52,10.2,54.5,7.2,58.2c-3,3.6-4.5,7.7-4.5,12.4c0,5.8,2.2,10.8,6.7,14.9
	c4.5,4.1,9.9,6.1,16.2,6.1l85.7,0c3-0.4,5.3-2.7,5.6-5.7V70.6H25.6l75-21.5C105.4,47.6,109.3,45.1,112.3,41.6z M230.6,8.5
	c-3.3,0.1-5.9,2.7-6.1,5.9l0,50c-0.1,3.4-3,6.1-6.5,6.1c-0.1,0-42.4,0-55.8,0c-3.3-0.1-6-2.8-6.2-6.2h0v-56h-16.9v0
	c-2.9,0.1-5.4,2.2-6,5v57.2c0,5.8,2.2,10.7,6.7,14.7c4.5,4.1,9.9,6.1,16.2,6.1h68.4c6.3,0,11.8-2,16.2-6.1c4.5-4.1,6.7-9,6.7-14.7
	V8.5L230.6,8.5L230.6,8.5z M502.4,44c-1.3-1.2-2.7-2.2-4.4-2.9c-2.2-1-4.6-1.2-7-1.6V29.2c0-5.7-2.2-10.5-6.7-14.6
	c-4.5-4.1-9.8-6.1-16-6.1h-67.5v0c-3.3,0.1-6,2.8-6.2,6.1v76.8H486c6.3,0,11.8-2,16.2-6.1c4.5-4.1,6.7-9,6.7-14.8c0,0,0-10.3,0-10.3
	C508.9,54.3,506.7,48.1,502.4,44z M417.6,29.2H446c0,0,0.1,0,0.1,0h16.8v0c0.1,0,0.1,0,0.2,0c3,0,5.3,2.3,5.5,5.3h0v3.2
	c0,1.1-0.9,1.9-2.1,1.9h-20.3c0,0,0,0-0.1,0h-28.4V29.2z M485.9,68.7c0,1.1-1,1.9-2.1,1.9h-15c0,0,0,0-0.1,0h-51.1V60.2
	c0,0,62.7,0,62.8,0c2.9,0,5.2,2.3,5.4,5.1V68.7z M371.4,14.6c-4.5-4.1-9.9-6.1-16.2-6.1h-85.3c-3.3,0.2-6,2.9-6.1,6.2v76.8l17.3,0
	c2.9-0.4,5.2-2.6,5.6-5.5V60.4l62.1,0c3.5,0,6.4,2.6,6.4,5.8v20c0,0.2,0,0.4-0.1,0.6v4.8h16.4v0h0.5c3.2-0.2,5.8-2.8,6-6V70.6
	c0-6.1-2.6-11.3-7.8-15.5c5.2-4.1,7.8-9.3,7.8-15.6V29.2C378.1,23.5,375.9,18.7,371.4,14.6z M355.2,37.6c0,1.1-0.9,1.9-2.1,1.9h-8.6
	v0h-57.7V29.2l62.8,0v0c0.1,0,0.1,0,0.2,0c2.9,0,5.3,2.3,5.5,5.2V37.6z"/>
</svg>
